<svg width="32" height="32" viewBox="0 0 32 32" fill="none" xmlns="http://www.w3.org/2000/svg">
<path d="M23.4 15.1C22.8916 17.0195 21.7627 18.7169 20.1891 19.9279C18.6155 21.139 16.6857 21.7957 14.7 21.7957C12.7144 21.7957 10.7845 21.139 9.21088 19.9279C7.6373 18.7169 6.5084 17.0195 6 15.1" stroke="black" stroke-width="1.5" stroke-linecap="round" stroke-linejoin="round"/>
<path d="M6 15.1H23.4" stroke="black" stroke-width="1.5" stroke-linecap="round" stroke-linejoin="round"/>
<path d="M14.7 21.8V28.7" stroke="black" stroke-width="1.5" stroke-linecap="round" stroke-linejoin="round"/>
<path d="M8.89996 29.2H20.5" stroke="black" stroke-width="1.5" stroke-linecap="round" stroke-linejoin="round"/>
<path d="M13.4 11.8C13.4 10.4739 13.9268 9.20215 14.8644 8.26447C15.8021 7.32678 17.0739 6.8 18.4 6.8C19.726 6.8 20.9979 7.32678 21.9355 8.26447C22.8732 9.20215 23.4 10.4739 23.4 11.8" stroke="black" stroke-width="1.5" stroke-linecap="round" stroke-linejoin="round"/>
<path d="M6.70001 11.8C6.70001 10.4739 7.22675 9.20215 8.16443 8.26447C9.10211 7.32678 10.3739 6.8 11.7 6.8" stroke="black" stroke-width="1.5" stroke-linecap="round" stroke-linejoin="round"/>
<path d="M17.7 6.8L20.6 2" stroke="black" stroke-width="1.5" stroke-linecap="round" stroke-linejoin="round"/>
<path d="M22.5 8.89999L27 5.5" stroke="black" stroke-width="1.5" stroke-linecap="round" stroke-linejoin="round"/>
</svg>
