<svg width="32" height="32" viewBox="0 0 32 32" fill="none" xmlns="http://www.w3.org/2000/svg">
<path d="M13 9.10001L16 4L27.9 24.7C19.9 29.2 12 29.2 4 24.7L9.8 14.7" stroke="black" stroke-width="1.5" stroke-linejoin="round"/>
<path d="M5.70001 21.2C8.77615 23.1143 12.3269 24.1289 15.95 24.1289C19.5731 24.1289 23.1239 23.1143 26.2 21.2" stroke="black" stroke-width="1.5" stroke-linejoin="round"/>
<path d="M17.9 20.5C18.9493 20.5 19.8 19.6493 19.8 18.6C19.8 17.5507 18.9493 16.7 17.9 16.7C16.8507 16.7 16 17.5507 16 18.6C16 19.6493 16.8507 20.5 17.9 20.5Z" stroke="black" stroke-width="1.5" stroke-linejoin="round"/>
<path d="M15.1 12.1C15.1 12.9752 14.7523 13.8146 14.1334 14.4334C13.5146 15.0523 12.6752 15.4 11.8 15.4C11.0793 15.3666 10.3842 15.1233 9.79999 14.7L13 9.10001C13.5998 9.34754 14.1163 9.76153 14.4884 10.2931C14.8605 10.8247 15.0727 11.4517 15.1 12.1Z" stroke="black" stroke-width="1.5" stroke-linejoin="round"/>
</svg>
